<svg width="63" height="63" viewBox="0 0 63 63" fill="none" xmlns="http://www.w3.org/2000/svg">
<rect x="0.5" y="0.5" width="61.89" height="61.89" rx="15.54" fill="url(#paint0_linear_195_707)" stroke="#26252A"/>
<path d="M31.4531 10.415H24.3388C20.4078 10.415 17.2247 13.5982 17.2247 17.5292C17.2247 21.4602 20.4078 24.6434 24.3388 24.6434H31.4531V10.415Z" fill="#FF001B"/>
<path d="M31.4531 24.665H24.3388C20.4078 24.665 17.2247 27.8482 17.2247 31.7792C17.2247 35.7101 20.4078 38.8934 24.3388 38.8934H31.4531V24.665Z" fill="#8C49FF"/>
<path d="M31.4531 38.8936H24.3388C20.4078 38.8936 17.2247 42.0768 17.2247 46.0077C17.2247 49.9387 20.4078 53.1219 24.3388 53.1219C28.2697 53.1219 31.4531 49.9387 31.4531 46.0077V38.8936Z" fill="#00CE66"/>
<path d="M31.4529 10.415H38.5671C42.498 10.415 45.6812 13.5982 45.6812 17.5292C45.6812 21.4602 42.498 24.6434 38.5671 24.6434H31.4529V10.415Z" fill="#FF6718"/>
<path d="M38.5671 24.665C42.498 24.665 45.6812 27.8482 45.6812 31.7792C45.6812 35.7101 42.498 38.8934 38.5671 38.8934C34.6361 38.8934 31.4529 35.7101 31.4529 31.7792C31.4529 27.8482 34.6361 24.665 38.5671 24.665Z" fill="#05ACF3"/>
<defs>
<linearGradient id="paint0_linear_195_707" x1="31.445" y1="0" x2="31.445" y2="62.89" gradientUnits="userSpaceOnUse">
<stop stop-color="#1E1E1E"/>
<stop offset="1" stop-color="#141414"/>
</linearGradient>
</defs>
</svg>
