<svg width="1764" height="563" viewBox="0 0 1764 563" fill="none" xmlns="http://www.w3.org/2000/svg">
<rect x="1008.55" y="482.551" width="144.706" height="48.3028" rx="9.36635" fill="white" stroke="#1D4ED8" stroke-width="1.10192"/>
<text fill="#1D4ED8" style="white-space: pre" xml:space="preserve" font-family="Noto Sans KR" font-size="20" font-weight="bold" letter-spacing="0em"><tspan x="1032.64" y="513.332">&#xc9c0;&#xc6d0;&#xae08; &#xc0c1;&#xc138;</tspan></text>
<path d="M170.5 268V277.5H274.5V292.5" stroke="white"/>
<rect x="40.551" y="354.551" width="125.764" height="40.6582" rx="9.36635" fill="white" stroke="#60A5FA" stroke-width="1.10192"/>
<rect x="202.551" y="354.551" width="125.764" height="40.6582" rx="9.36635" fill="white" stroke="#60A5FA" stroke-width="1.10192"/>
<rect x="216.551" y="259.551" width="125.764" height="40.6582" rx="9.36635" fill="white" stroke="#60A5FA" stroke-width="1.10192"/>
<rect x="350.551" y="314.551" width="144.706" height="48.3028" rx="9.36635" fill="white" stroke="#F6B55B" stroke-width="1.10192"/>
<rect x="1008.55" y="390.551" width="144.706" height="48.3028" rx="9.36635" fill="white" stroke="#1D4ED8" stroke-width="1.10192"/>
<rect x="1164.55" y="390.551" width="144.706" height="48.3028" rx="9.36635" fill="white" stroke="#1D4ED8" stroke-width="1.10192"/>
<rect x="1308.55" y="330.551" width="144.706" height="48.3028" rx="9.36635" fill="white" stroke="#815BBB" stroke-width="1.10192"/>
<rect x="1308.55" y="457.551" width="144.706" height="48.3028" rx="9.36635" fill="white" stroke="#815BBB" stroke-width="1.10192"/>
<rect x="1472.55" y="457.551" width="144.706" height="48.3028" rx="9.36635" fill="white" stroke="#815BBB" stroke-width="1.10192"/>
<rect x="1467.55" y="330.551" width="144.706" height="48.3028" rx="9.36635" fill="white" stroke="#815BBB" stroke-width="1.10192"/>
<rect x="1618.55" y="330.551" width="144.706" height="48.3028" rx="9.36635" fill="white" stroke="#815BBB" stroke-width="1.10192"/>
<rect x="509.551" y="314.551" width="144.706" height="48.3028" rx="9.36635" fill="white" stroke="#F6B55B" stroke-width="1.10192"/>
<rect x="136.551" y="514.551" width="119.898" height="47.8981" rx="9.36635" fill="white" stroke="#60A5FA" stroke-width="1.10192"/>
<rect x="0.550962" y="514.551" width="119.898" height="47.8981" rx="9.36635" fill="white" stroke="#60A5FA" stroke-width="1.10192"/>
<rect x="353.551" y="418.551" width="144.706" height="48.3028" rx="9.36635" fill="white" stroke="#F6B55B" stroke-width="1.10192"/>
<rect x="852.551" y="306.551" width="148.131" height="48.3028" rx="9.36635" fill="white" stroke="#649C62" stroke-width="1.10192"/>
<rect x="690.551" y="307.551" width="148.131" height="48.3028" rx="9.36635" fill="white" stroke="#649C62" stroke-width="1.10192"/>
<rect x="698.551" y="406.551" width="148.131" height="48.3028" rx="9.36635" fill="white" stroke="#649C62" stroke-width="1.10192"/>
<text fill="#3C843C" style="white-space: pre" xml:space="preserve" font-family="Noto Sans KR" font-size="20" font-weight="bold" letter-spacing="0em"><tspan x="726.054" y="339.037">&#xac70;&#xb798; &#xb0b4;&#xc5ed;</tspan></text>
<text fill="#E99422" style="white-space: pre" xml:space="preserve" font-family="Noto Sans KR" font-size="20" font-weight="bold" letter-spacing="0em"><tspan x="377.44" y="346.292">&#xc9c0;&#xb3c4;&#xb85c; &#xcc3e;&#xae30;</tspan></text>
<text fill="#1D4ED8" style="white-space: pre" xml:space="preserve" font-family="Noto Sans KR" font-size="20" font-weight="bold" letter-spacing="0em"><tspan x="1032.64" y="422.534">&#xc9c0;&#xc6d0;&#xae08; &#xbaa9;&#xb85d;</tspan></text>
<text fill="#1D4ED8" style="white-space: pre" xml:space="preserve" font-family="Noto Sans KR" font-size="20" font-weight="bold" letter-spacing="0em"><tspan x="1197.84" y="422.534">&#xacf5;&#xc9c0; &#xc0ac;&#xd56d;</tspan></text>
<text fill="#815BBB" style="white-space: pre" xml:space="preserve" font-family="Noto Sans KR" font-size="20" font-weight="bold" letter-spacing="0em"><tspan x="1341.84" y="362.534">&#xce74;&#xb4dc; &#xad00;&#xb9ac;</tspan></text>
<text fill="#815BBB" style="white-space: pre" xml:space="preserve" font-family="Noto Sans KR" font-size="20" font-weight="bold" letter-spacing="0em"><tspan x="1341.84" y="489.5">&#xce74;&#xb4dc; &#xbc88;&#xd638;</tspan></text>
<text fill="#815BBB" style="white-space: pre" xml:space="preserve" font-family="Noto Sans KR" font-size="20" font-weight="bold" letter-spacing="0em"><tspan x="1496.64" y="489.5">&#xd070;&#xae00;&#xc528; &#xbaa8;&#xb4dc;</tspan></text>
<text fill="#815BBB" style="white-space: pre" xml:space="preserve" font-family="Noto Sans KR" font-size="20" font-weight="bold" letter-spacing="0em"><tspan x="1502.61" y="362.534">&#xd68c;&#xc6d0;&#xc815;&#xbcf4;</tspan></text>
<text fill="#815BBB" style="white-space: pre" xml:space="preserve" font-family="Noto Sans KR" font-size="20" font-weight="bold" letter-spacing="0em"><tspan x="1642.64" y="362.534">&#xac00;&#xb9f9;&#xc810; &#xc2e0;&#xccad;</tspan></text>
<path d="M170 158.5V142H1520V163" stroke="white"/>
<path d="M837.5 142V160.5" stroke="white"/>
<path d="M490.5 142V161.5" stroke="white"/>
<path d="M170 240V324.5H103V354" stroke="white"/>
<path d="M170 324.5H257V353.5" stroke="white"/>
<text fill="#E99422" style="white-space: pre" xml:space="preserve" font-family="Noto Sans KR" font-size="20" font-weight="bold" letter-spacing="0em"><tspan x="541.582" y="346.702">&#xb9e4;&#xc7a5; &#xac80;&#xc0c9;</tspan></text>
<text fill="#E99422" style="white-space: pre" xml:space="preserve" font-family="Noto Sans KR" font-size="20" font-weight="bold" letter-spacing="0em"><tspan x="385.582" y="448.179">&#xb9e4;&#xc7a5; &#xc0c1;&#xc138;</tspan></text>
<path d="M423 364V418" stroke="white"/>
<path d="M772 356V410" stroke="white"/>
<path d="M1081 428V482" stroke="white"/>
<path d="M1376 362L1376 454.5" stroke="white"/>
<path d="M1540 360L1540 455" stroke="white"/>
<text fill="#1774DB" style="white-space: pre" xml:space="preserve" font-family="Noto Sans KR" font-size="20" font-weight="bold" letter-spacing="0em"><tspan x="178.102" y="545.341">&#xd658;&#xbd88; </tspan></text>
<text fill="#1774DB" style="white-space: pre" xml:space="preserve" font-family="Noto Sans KR" font-size="20" font-weight="bold" letter-spacing="0em"><tspan x="42.1016" y="545.341">&#xcda9;&#xc804;</tspan></text>
<text fill="#1774DB" style="white-space: pre" xml:space="preserve" font-family="Noto Sans KR" font-size="20" font-weight="bold" letter-spacing="0em"><tspan x="62.0234" y="382.868">&#xc794;&#xc561; &#xce74;&#xb4dc;</tspan></text>
<text fill="#1774DB" style="white-space: pre" xml:space="preserve" font-family="Noto Sans KR" font-size="20" font-weight="bold" letter-spacing="0em"><tspan x="234.988" y="382.88">&#xce90;&#xc2dc;&#xbc31;</tspan></text>
<text fill="#1774DB" style="white-space: pre" xml:space="preserve" font-family="Noto Sans KR" font-size="20" font-weight="bold" letter-spacing="0em"><tspan x="238.023" y="287.88">&#xce74;&#xb4dc; &#xc2e0;&#xccad;</tspan></text>
<text fill="#3C843C" style="white-space: pre" xml:space="preserve" font-family="Noto Sans KR" font-size="20" font-weight="bold" letter-spacing="0em"><tspan x="888.054" y="337.702">&#xae30;&#xac04; &#xd544;&#xd130;</tspan></text>
<text fill="#3C843C" style="white-space: pre" xml:space="preserve" font-family="Noto Sans KR" font-size="20" font-weight="bold" letter-spacing="0em"><tspan x="734.054" y="437.368">&#xd658;&#xbd88; &#xc9c4;&#xc785;</tspan></text>
<rect x="683" width="297.68" height="84.0908" rx="7" fill="#F7FAFF"/>
<path d="M760.894 24.4162C757.97 21.6672 753.978 20.1076 749.572 19.5242C745.364 18.9666 742.5 19.1038 742.5 19.1038C742.5 19.1038 739.634 18.9666 735.427 19.5242C731.021 20.1076 727.029 21.6672 724.105 24.4162C721.355 27.3405 719.796 31.3328 719.212 35.7383C718.655 39.9456 718.792 42.8109 718.792 42.8109C718.792 42.8109 718.655 45.6759 719.212 49.8836C719.796 54.2888 721.355 58.2814 724.105 61.2057C727.029 63.9551 731.021 65.5143 735.427 66.0984C739.634 66.6557 742.5 66.5184 742.5 66.5184C742.5 66.5184 745.364 66.6557 749.572 66.0984C753.978 65.5143 757.97 63.9551 760.894 61.2057C763.644 58.2814 765.203 54.2888 765.787 49.8836C766.344 45.6759 766.207 42.8109 766.207 42.8109C766.207 42.8109 766.344 39.9456 765.787 35.7383C765.203 31.3328 763.644 27.3405 760.894 24.4162Z" fill="#4239B0"/>
<path d="M736.941 44.2407C739.307 44.2407 741.229 46.1646 741.229 48.5297C741.229 50.8948 739.307 52.8188 736.941 52.8188C734.575 52.8188 732.651 50.8948 732.651 48.5297C732.651 46.1646 734.575 44.2407 736.941 44.2407ZM748.06 44.2407C750.426 44.2407 752.349 46.1646 752.349 48.5297C752.349 50.8948 750.426 52.8188 748.06 52.8188C745.695 52.8188 743.771 50.8948 743.771 48.5297C743.771 46.1646 745.695 44.2407 748.06 44.2407ZM736.941 32.8032C739.307 32.8032 741.229 34.7271 741.229 37.0922C741.229 39.4573 739.307 41.3813 736.941 41.3813C734.575 41.3813 732.651 39.4573 732.651 37.0922C732.651 34.7271 734.575 32.8032 736.941 32.8032ZM748.06 32.8032C750.426 32.8032 752.349 34.7271 752.349 37.0922C752.349 39.4573 750.426 41.3813 748.06 41.3813C745.695 41.3813 743.771 39.4573 743.771 37.0922C743.771 34.7271 745.695 32.8032 748.06 32.8032Z" fill="white"/>
<text fill="#4239B0" style="white-space: pre" xml:space="preserve" font-family="Noto Sans KR" font-size="30" font-weight="bold" letter-spacing="0em"><tspan x="795.402" y="42.811">&#xc704;&#xc82f;</tspan></text>
<text fill="#4239B0" style="white-space: pre" xml:space="preserve" font-family="Noto Sans KR" font-size="19" font-weight="500" letter-spacing="0em"><tspan x="795.297" y="68.8798">&#xc794;&#xc561; &#xc989;&#xc2dc; &#xd655;&#xc778;</tspan></text>
<rect x="742" y="158" width="179.672" height="81.001" rx="9" fill="white"/>
<text fill="#3C843C" style="white-space: pre" xml:space="preserve" font-family="Noto Sans KR" font-size="30" font-weight="bold" letter-spacing="0em"><tspan x="773.016" y="199.746">&#xc774;&#xc6a9; &#xb0b4;&#xc5ed;</tspan></text>
<text fill="#3C843C" style="white-space: pre" xml:space="preserve" font-family="Noto Sans KR" font-size="19" font-weight="500" letter-spacing="0em"><tspan x="794.519" y="225.815">&#xac70;&#xb798; &#xae30;&#xb85d;</tspan></text>
<rect x="66" y="158" width="210.533" height="81.001" rx="9" fill="white"/>
<text fill="#1774DB" style="white-space: pre" xml:space="preserve" font-family="Noto Sans KR" font-size="30" font-weight="bold" letter-spacing="0em"><tspan x="157.468" y="199.746">&#xd648;</tspan></text>
<text fill="#1774DB" style="white-space: pre" xml:space="preserve" font-family="Noto Sans KR" font-size="19" font-weight="500" letter-spacing="0em"><tspan x="134.176" y="225.815">&#xba54;&#xc778; &#xd654;&#xba74;</tspan></text>
<rect x="389" y="158" width="193.882" height="81.001" rx="9" fill="white"/>
<text fill="#E99322" style="white-space: pre" xml:space="preserve" font-family="Noto Sans KR" font-size="30" font-weight="bold" letter-spacing="0em"><tspan x="423.418" y="200.826">&#xacb0;&#xc81c; &#xb9e4;&#xc7a5;</tspan></text>
<text fill="#E99322" style="white-space: pre" xml:space="preserve" font-family="Noto Sans KR" font-size="19" font-weight="500" letter-spacing="0em"><tspan x="444.921" y="225.815">&#xcc3e;&#xae30; &#xac80;&#xc0c9;</tspan></text>
<rect x="1049" y="158" width="193.882" height="81.001" rx="9" fill="white"/>
<text fill="#1D4ED8" style="white-space: pre" xml:space="preserve" font-family="Noto Sans KR" font-size="30" font-weight="bold" letter-spacing="0em"><tspan x="1090.75" y="199.746">&#xd61c;&#xd0dd;&#xc815;&#xbcf4;</tspan></text>
<text fill="#1D4ED8" style="white-space: pre" xml:space="preserve" font-family="Noto Sans KR" font-size="19" font-weight="500" letter-spacing="0em"><tspan x="1099.11" y="225.815">&#xc9c0;&#xc6d0;&#xae08; &#xc18c;&#xc2dd;</tspan></text>
<rect x="1414" y="158" width="201.739" height="81.001" rx="9" fill="white"/>
<text fill="#815BBB" style="white-space: pre" xml:space="preserve" font-family="Noto Sans KR" font-size="30" font-weight="bold" letter-spacing="0em"><tspan x="1493.38" y="199.746">MY</tspan></text>
<text fill="#815BBB" style="white-space: pre" xml:space="preserve" font-family="Noto Sans KR" font-size="19" font-weight="500" letter-spacing="0em"><tspan x="1477.28" y="225.815">&#xc124;&#xc815; &#xad00;&#xb9ac;</tspan></text>
<path d="M103 397V440.514H198V467" stroke="white"/>
<path d="M486 228V281.459H581V314" stroke="white"/>
<path d="M835 228V277.108H922V307" stroke="white"/>
<path d="M1147 239V332.865H1234V390" stroke="white"/>
<path d="M1497 190V277.027H1540V330" stroke="white"/>
<path d="M1497 190V277.027H1691V330" stroke="white"/>
<path d="M486 228V281.459H423V314" stroke="white"/>
<path d="M835 228V277.108H772V307" stroke="white"/>
<path d="M1147 239V332.865H1084V390" stroke="white"/>
<path d="M1497 190V277.027H1376V330" stroke="white"/>
<path d="M103 419V487.776H60V514" stroke="white"/>
<path d="M103 419V487.776H198V514" stroke="white"/>
<rect x="136.551" y="418.551" width="119.898" height="47.8981" rx="9.36635" fill="white" stroke="#60A5FA" stroke-width="1.10192"/>
<text fill="#1774DB" style="white-space: pre" xml:space="preserve" font-family="Noto Sans KR" font-size="20" font-weight="bold" letter-spacing="0em"><tspan x="161.324" y="449.341">QR &#xacb0;&#xc81c;</tspan></text>
</svg>
