<svg width="727" height="772" viewBox="0 0 727 772" fill="none" xmlns="http://www.w3.org/2000/svg">
<rect x="6.96094" y="2.5" width="291" height="112" rx="56" fill="white" stroke="black" stroke-width="5"/>
<text fill="black" style="white-space: pre" xml:space="preserve" font-family="Inter" font-size="30" font-weight="bold" letter-spacing="0em"><tspan x="74.9609" y="69.4091">Start / End</tspan></text>
<rect x="6.96094" y="327.5" width="291" height="112" fill="white" stroke="black" stroke-width="5"/>
<text fill="black" style="white-space: pre" xml:space="preserve" font-family="Inter" font-size="30" font-weight="bold" letter-spacing="0em"><tspan x="80.4092" y="394.409">Execution</tspan></text>
<path d="M72.9609 490.5H297.961L231.961 602.5H6.96094L72.9609 490.5Z" fill="white" stroke="black" stroke-width="5"/>
<text fill="black" style="white-space: pre" xml:space="preserve" font-family="Inter" font-size="28" font-weight="bold" letter-spacing="0em"><tspan x="57.2715" y="556.682">Input / Output</tspan></text>
<path d="M297.961 653.5H6.96094V765.5C56.9609 765.5 99.9609 771 159.961 739C217.863 708.119 266.961 734 297.961 765.5V653.5Z" fill="white" stroke="black" stroke-width="5"/>
<text fill="black" style="white-space: pre" xml:space="preserve" font-family="Inter" font-size="30" font-weight="bold" letter-spacing="0em"><tspan x="118.363" y="705.409">Print</tspan></text>
<path d="M297.961 220.5L152.461 276.5L6.96094 220.5L152.461 164.5L297.961 220.5Z" fill="white"/>
<path d="M297.961 220.5L298.859 222.833L304.921 220.5L298.859 218.167L297.961 220.5ZM152.461 276.5L151.563 278.833L152.461 279.179L153.359 278.833L152.461 276.5ZM6.96094 220.5L6.06295 218.167L0.000909805 220.5L6.06295 222.833L6.96094 220.5ZM152.461 164.5L153.359 162.167L152.461 161.821L151.563 162.167L152.461 164.5ZM297.961 220.5L297.063 218.167L151.563 274.167L152.461 276.5L153.359 278.833L298.859 222.833L297.961 220.5ZM152.461 276.5L153.359 274.167L7.85892 218.167L6.96094 220.5L6.06295 222.833L151.563 278.833L152.461 276.5ZM6.96094 220.5L7.85892 222.833L153.359 166.833L152.461 164.5L151.563 162.167L6.06295 218.167L6.96094 220.5ZM152.461 164.5L151.563 166.833L297.063 222.833L297.961 220.5L298.859 218.167L153.359 162.167L152.461 164.5Z" fill="black"/>
<text fill="black" style="white-space: pre" xml:space="preserve" font-family="Inter" font-size="28" font-weight="bold" letter-spacing="0em"><tspan x="73.4043" y="230.682">True / False</tspan></text>
<path d="M151.193 163.268C152.169 164.244 153.752 164.244 154.729 163.268L170.639 147.358C171.615 146.382 171.615 144.799 170.639 143.822C169.662 142.846 168.079 142.846 167.103 143.822L152.961 157.964L138.819 143.822C137.842 142.846 136.26 142.846 135.283 143.822C134.307 144.799 134.307 146.382 135.283 147.358L151.193 163.268ZM152.961 114.5H150.461V161.5H152.961H155.461V114.5H152.961Z" fill="black"/>
<path d="M151.193 325.268C152.169 326.244 153.752 326.244 154.729 325.268L170.639 309.358C171.615 308.382 171.615 306.799 170.639 305.822C169.662 304.846 168.079 304.846 167.103 305.822L152.961 319.964L138.819 305.822C137.842 304.846 136.26 304.846 135.283 305.822C134.307 306.799 134.307 308.382 135.283 309.358L151.193 325.268ZM152.961 276.5H150.461V323.5H152.961H155.461V276.5H152.961Z" fill="black"/>
<path d="M151.193 490.268C152.169 491.244 153.752 491.244 154.729 490.268L170.639 474.358C171.615 473.382 171.615 471.799 170.639 470.822C169.662 469.846 168.079 469.846 167.103 470.822L152.961 484.964L138.819 470.822C137.842 469.846 136.26 469.846 135.283 470.822C134.307 471.799 134.307 473.382 135.283 474.358L151.193 490.268ZM152.961 441.5H150.461V488.5H152.961H155.461V441.5H152.961Z" fill="black"/>
<path d="M151.193 651.268C152.169 652.244 153.752 652.244 154.729 651.268L170.639 635.358C171.615 634.382 171.615 632.799 170.639 631.822C169.662 630.846 168.079 630.846 167.103 631.822L152.961 645.964L138.819 631.822C137.842 630.846 136.26 630.846 135.283 631.822C134.307 632.799 134.307 634.382 135.283 635.358L151.193 651.268ZM152.961 602.5H150.461V649.5H152.961H155.461V602.5H152.961Z" fill="black"/>
<path d="M310.961 58.5H380.961" stroke="black" stroke-width="5" stroke-dasharray="10 10"/>
<path d="M310.961 220.5H380.961" stroke="black" stroke-width="5" stroke-dasharray="10 10"/>
<path d="M310.961 383.5H380.961" stroke="black" stroke-width="5" stroke-dasharray="10 10"/>
<path d="M310.961 546.5H380.961" stroke="black" stroke-width="5" stroke-dasharray="10 10"/>
<path d="M310.961 709.5H380.961" stroke="black" stroke-width="5" stroke-dasharray="10 10"/>
<text fill="black" style="white-space: pre" xml:space="preserve" font-family="Inter" font-size="30" font-weight="bold" letter-spacing="0em"><tspan x="484.259" y="43.4091">[ &#xc2dc;&#xc791; / &#xc885;&#xb8cc; ]&#x2028;</tspan></text>
<text fill="black" style="white-space: pre" xml:space="preserve" font-family="Inter" font-size="25" letter-spacing="0em"><tspan x="415.968" y="93.4091">: &#xd50c;&#xb85c;&#xc6b0;&#xc758; &#xc2dc;&#xc791;&#xacfc; &#xc885;&#xb8cc;&#xb97c; &#xc758;&#xbbf8;</tspan></text>
<text fill="black" style="white-space: pre" xml:space="preserve" font-family="Inter" font-size="30" font-weight="bold" letter-spacing="0em"><tspan x="521.173" y="205.409">[  &#xc120;&#xd0dd; ]&#x2028;</tspan></text>
<text fill="black" style="white-space: pre" xml:space="preserve" font-family="Inter" font-size="25" letter-spacing="0em"><tspan x="438.966" y="255.409">: &#xc870;&#xac74;&#xc5d0; &#xb530;&#xb978; &#xacbd;&#xb85c;&#xb97c; &#xc758;&#xbbf8;</tspan></text>
<text fill="black" style="white-space: pre" xml:space="preserve" font-family="Inter" font-size="30" font-weight="bold" letter-spacing="0em"><tspan x="484.259" y="531.409">[ &#xc785;&#xb825; / &#xcd9c;&#xb825; ]&#x2028;</tspan></text>
<text fill="black" style="white-space: pre" xml:space="preserve" font-family="Inter" font-size="25" letter-spacing="0em"><tspan x="438.026" y="581.409">: &#xb370;&#xc774;&#xd130;&#xc758; &#xc785;/&#xcd9c;&#xb825;&#xc744; &#xc758;&#xbbf8;</tspan></text>
<text fill="black" style="white-space: pre" xml:space="preserve" font-family="Inter" font-size="30" font-weight="bold" letter-spacing="0em"><tspan x="524.145" y="694.409">[ &#xcc98;&#xb9ac; ]&#x2028;</tspan></text>
<text fill="black" style="white-space: pre" xml:space="preserve" font-family="Inter" font-size="25" letter-spacing="0em"><tspan x="449.965" y="744.409">: &#xc2e4;&#xc81c; &#xcd9c;&#xb825; &#xacb0;&#xacfc;&#xb97c; &#xc758;&#xbbf8;</tspan></text>
<text fill="black" style="white-space: pre" xml:space="preserve" font-family="Inter" font-size="30" font-weight="bold" letter-spacing="0em"><tspan x="524.145" y="368.409">[ &#xc2e4;&#xd589; ]&#x2028;</tspan></text>
<text fill="black" style="white-space: pre" xml:space="preserve" font-family="Inter" font-size="25" letter-spacing="0em"><tspan x="429.408" y="418.409">: [&#xc120;&#xd0dd;]&#xc5d0; &#xb530;&#xb978; &#xacb0;&#xacfc;&#xb97c; &#xc758;&#xbbf8;</tspan></text>
</svg>
