<svg width="413" height="198" viewBox="0 0 413 198" fill="none" xmlns="http://www.w3.org/2000/svg">
<rect width="141.208" height="141.208" transform="matrix(0.724346 0.689436 -0.724346 0.689436 103.908 1.54492)" fill="white" stroke="#1D4ED8" stroke-width="2.24219"/>
<rect width="141.208" height="141.208" transform="matrix(0.724346 0.689436 -0.724346 0.689436 308.547 1.54492)" fill="white" stroke="#1D4ED8" stroke-width="2.24219"/>
<path d="M104.336 1.54492V196.545" stroke="#1D4ED8" stroke-width="1.34531" stroke-dasharray="4.48 4.48"/>
<path d="M308.336 1.54492V196.545" stroke="#1D4ED8" stroke-width="1.34531" stroke-dasharray="4.48 4.48"/>
<path d="M51.3929 99.5449H45.6123V83.2381H51.4407C53.0809 83.2381 54.4929 83.5645 55.6766 84.2174C56.8604 84.865 57.7707 85.7966 58.4077 87.0122C59.05 88.2278 59.3712 89.6823 59.3712 91.3756C59.3712 93.0742 59.05 94.534 58.4077 95.7549C57.7707 96.9757 56.8551 97.9126 55.6607 98.5656C54.4717 99.2185 53.0491 99.5449 51.3929 99.5449ZM49.06 96.5909H51.2496C52.2688 96.5909 53.126 96.4104 53.8214 96.0495C54.5221 95.6832 55.0476 95.1179 55.398 94.3535C55.7536 93.5838 55.9314 92.5912 55.9314 91.3756C55.9314 90.1706 55.7536 89.1859 55.398 88.4216C55.0476 87.6572 54.5248 87.0945 53.8294 86.7335C53.134 86.3726 52.2767 86.1921 51.2576 86.1921H49.06V96.5909ZM68.924 83.2381V99.5449H65.4763V86.5106H65.3807L61.6464 88.8515V85.794L65.6833 83.2381H68.924ZM26.7798 110.653C26.7798 109.449 26.9358 108.342 27.248 107.333C27.5633 106.32 28.0123 105.388 28.5952 104.538H29.5889C29.3596 104.853 29.1446 105.242 28.9439 105.703C28.7465 106.162 28.5729 106.667 28.4232 107.218C28.2735 107.766 28.1557 108.333 28.0697 108.919C27.9869 109.505 27.9455 110.083 27.9455 110.653C27.9455 111.411 28.0187 112.18 28.1652 112.96C28.3117 113.741 28.5092 114.465 28.7576 115.134C29.006 115.803 29.2831 116.348 29.5889 116.768H28.5952C28.0123 115.918 27.5633 114.988 27.248 113.978C26.9358 112.965 26.7798 111.857 26.7798 110.653ZM34.4248 115.545H31.4055V105.761H34.5586C35.5077 105.761 36.3198 105.957 36.995 106.348C37.6702 106.737 38.1878 107.296 38.5477 108.025C38.9076 108.751 39.0875 109.621 39.0875 110.634C39.0875 111.653 38.906 112.53 38.5429 113.266C38.1798 113.999 37.6511 114.562 36.9568 114.957C36.2625 115.349 35.4185 115.545 34.4248 115.545ZM32.5903 114.494H34.3484C35.1573 114.494 35.8278 114.338 36.3596 114.026C36.8915 113.714 37.2881 113.269 37.5492 112.693C37.8104 112.116 37.941 111.43 37.941 110.634C37.941 109.844 37.812 109.164 37.554 108.594C37.296 108.021 36.9106 107.581 36.3979 107.275C35.8851 106.966 35.2465 106.812 34.4821 106.812H32.5903V114.494ZM40.9221 115.545V108.207H42.0495V115.545H40.9221ZM41.4953 106.984C41.2756 106.984 41.0861 106.909 40.9268 106.759C40.7708 106.61 40.6927 106.43 40.6927 106.219C40.6927 106.009 40.7708 105.829 40.9268 105.68C41.0861 105.53 41.2756 105.455 41.4953 105.455C41.7151 105.455 41.903 105.53 42.0591 105.68C42.2183 105.829 42.2979 106.009 42.2979 106.219C42.2979 106.43 42.2183 106.61 42.0591 106.759C41.903 106.909 41.7151 106.984 41.4953 106.984ZM49.3124 109.85L48.2996 110.137C48.2359 109.968 48.1419 109.804 48.0177 109.645C47.8967 109.482 47.731 109.349 47.5208 109.244C47.3106 109.138 47.0415 109.086 46.7135 109.086C46.2644 109.086 45.8902 109.189 45.5908 109.396C45.2946 109.6 45.1465 109.86 45.1465 110.175C45.1465 110.455 45.2484 110.677 45.4522 110.839C45.6561 111.002 45.9746 111.137 46.4077 111.245L47.4969 111.513C48.153 111.672 48.6419 111.916 48.9636 112.244C49.2853 112.569 49.4461 112.987 49.4461 113.5C49.4461 113.921 49.3251 114.296 49.083 114.628C48.8442 114.959 48.5098 115.22 48.0798 115.411C47.6498 115.602 47.1498 115.698 46.5797 115.698C45.8312 115.698 45.2118 115.535 44.7213 115.211C44.2308 114.886 43.9203 114.411 43.7897 113.787L44.8598 113.519C44.9617 113.914 45.1544 114.21 45.4379 114.408C45.7245 114.605 46.0988 114.704 46.5606 114.704C47.0861 114.704 47.5033 114.593 47.8123 114.37C48.1244 114.144 48.2804 113.873 48.2804 113.558C48.2804 113.303 48.1913 113.089 48.0129 112.917C47.8346 112.742 47.5606 112.612 47.1912 112.526L45.9682 112.239C45.2962 112.08 44.8025 111.833 44.4872 111.498C44.1751 111.161 44.019 110.739 44.019 110.232C44.019 109.818 44.1353 109.452 44.3678 109.134C44.6034 108.815 44.9235 108.565 45.328 108.384C45.7357 108.202 46.1975 108.111 46.7135 108.111C47.4396 108.111 48.0097 108.271 48.4238 108.589C48.841 108.908 49.1372 109.328 49.3124 109.85ZM54.1244 115.698C53.4364 115.698 52.844 115.535 52.3472 115.211C51.8503 114.886 51.4682 114.438 51.2006 113.868C50.9331 113.298 50.7993 112.647 50.7993 111.914C50.7993 111.169 50.9363 110.511 51.2102 109.941C51.4873 109.368 51.8726 108.92 52.3663 108.599C52.8632 108.274 53.4428 108.111 54.1053 108.111C54.6212 108.111 55.0862 108.207 55.5003 108.398C55.9143 108.589 56.2535 108.857 56.5179 109.201C56.7822 109.545 56.9462 109.946 57.0099 110.404H55.8825C55.7965 110.07 55.6054 109.774 55.3092 109.516C55.0162 109.255 54.6212 109.124 54.1244 109.124C53.6849 109.124 53.2995 109.239 52.9683 109.468C52.6402 109.694 52.3838 110.014 52.1991 110.428C52.0176 110.839 51.9268 111.322 51.9268 111.876C51.9268 112.443 52.016 112.936 52.1943 113.357C52.3759 113.777 52.6307 114.104 52.9587 114.336C53.2899 114.569 53.6785 114.685 54.1244 114.685C54.4174 114.685 54.6833 114.634 54.9222 114.532C55.1611 114.43 55.3633 114.284 55.5289 114.093C55.6946 113.901 55.8124 113.672 55.8825 113.405H57.0099C56.9462 113.838 56.7886 114.228 56.537 114.575C56.2885 114.919 55.9589 115.193 55.5481 115.397C55.1404 115.597 54.6658 115.698 54.1244 115.698ZM61.6392 115.698C60.9768 115.698 60.3955 115.54 59.8955 115.225C59.3986 114.91 59.0101 114.468 58.7298 113.901C58.4527 113.335 58.3142 112.672 58.3142 111.914C58.3142 111.15 58.4527 110.482 58.7298 109.912C59.0101 109.342 59.3986 108.9 59.8955 108.584C60.3955 108.269 60.9768 108.111 61.6392 108.111C62.3017 108.111 62.8814 108.269 63.3782 108.584C63.8782 108.9 64.2668 109.342 64.5439 109.912C64.8242 110.482 64.9643 111.15 64.9643 111.914C64.9643 112.672 64.8242 113.335 64.5439 113.901C64.2668 114.468 63.8782 114.91 63.3782 115.225C62.8814 115.54 62.3017 115.698 61.6392 115.698ZM61.6392 114.685C62.1425 114.685 62.5565 114.556 62.8814 114.298C63.2062 114.04 63.4467 113.701 63.6027 113.28C63.7588 112.86 63.8368 112.405 63.8368 111.914C63.8368 111.424 63.7588 110.967 63.6027 110.543C63.4467 110.119 63.2062 109.777 62.8814 109.516C62.5565 109.255 62.1425 109.124 61.6392 109.124C61.136 109.124 60.722 109.255 60.3971 109.516C60.0722 109.777 59.8318 110.119 59.6757 110.543C59.5197 110.967 59.4416 111.424 59.4416 111.914C59.4416 112.405 59.5197 112.86 59.6757 113.28C59.8318 113.701 60.0722 114.04 60.3971 114.298C60.722 114.556 61.136 114.685 61.6392 114.685ZM72.423 108.207L69.7094 115.545H68.5629L65.8493 108.207H67.0723L69.0979 114.054H69.1744L71.2 108.207H72.423ZM76.725 115.698C76.018 115.698 75.4081 115.542 74.8953 115.23C74.3857 114.914 73.9924 114.475 73.7153 113.911C73.4414 113.344 73.3044 112.685 73.3044 111.933C73.3044 111.182 73.4414 110.519 73.7153 109.946C73.9924 109.369 74.3778 108.92 74.8714 108.599C75.3683 108.274 75.9479 108.111 76.6104 108.111C76.9926 108.111 77.37 108.175 77.7426 108.302C78.1153 108.43 78.4545 108.637 78.7602 108.923C79.066 109.207 79.3096 109.583 79.4912 110.051C79.6727 110.519 79.7635 111.096 79.7635 111.78V112.258H74.107V111.283H78.6169C78.6169 110.869 78.5341 110.5 78.3685 110.175C78.206 109.85 77.9735 109.594 77.671 109.406C77.3716 109.218 77.0181 109.124 76.6104 109.124C76.1613 109.124 75.7728 109.236 75.4447 109.459C75.1198 109.678 74.8698 109.965 74.6947 110.318C74.5195 110.672 74.4319 111.051 74.4319 111.455V112.105C74.4319 112.659 74.5274 113.129 74.7185 113.515C74.9128 113.897 75.182 114.188 75.5259 114.389C75.8699 114.586 76.2696 114.685 76.725 114.685C77.0212 114.685 77.2888 114.644 77.5277 114.561C77.7697 114.475 77.9783 114.347 78.1535 114.179C78.3287 114.007 78.464 113.793 78.5596 113.538L79.6488 113.844C79.5342 114.214 79.3415 114.538 79.0707 114.819C78.8 115.096 78.4656 115.312 78.0675 115.468C77.6694 115.621 77.2219 115.698 76.725 115.698ZM81.4786 115.545V108.207H82.5678V109.315H82.6442C82.778 108.952 83.0201 108.658 83.3704 108.431C83.7207 108.205 84.1157 108.092 84.5552 108.092C84.638 108.092 84.7415 108.094 84.8657 108.097C84.9899 108.1 85.0839 108.105 85.1476 108.111V109.258C85.1094 109.248 85.0218 109.234 84.8848 109.215C84.7511 109.193 84.6093 109.181 84.4597 109.181C84.1029 109.181 83.7844 109.256 83.5042 109.406C83.2271 109.552 83.0073 109.756 82.8449 110.017C82.6856 110.275 82.606 110.57 82.606 110.901V115.545H81.4786ZM88.8919 111.417C88.8919 112.621 88.7342 113.73 88.4189 114.742C88.1068 115.752 87.6593 116.682 87.0765 117.532H86.0828C86.3121 117.217 86.5255 116.828 86.7229 116.367C86.9236 115.908 87.0988 115.405 87.2485 114.857C87.3981 114.306 87.5144 113.737 87.5972 113.151C87.6832 112.562 87.7262 111.984 87.7262 111.417C87.7262 110.659 87.6529 109.89 87.5064 109.11C87.3599 108.329 87.1625 107.605 86.914 106.936C86.6656 106.267 86.3885 105.723 86.0828 105.302H87.0765C87.6593 106.153 88.1068 107.084 88.4189 108.097C88.7342 109.107 88.8919 110.213 88.8919 111.417Z" fill="#1D4ED8"/>
<path d="M134.816 99.5449H129.036V83.2381H134.864C136.504 83.2381 137.916 83.5645 139.1 84.2174C140.284 84.865 141.194 85.7966 141.831 87.0122C142.473 88.2278 142.795 89.6823 142.795 91.3756C142.795 93.0742 142.473 94.534 141.831 95.7549C141.194 96.9757 140.279 97.9126 139.084 98.5656C137.895 99.2185 136.473 99.5449 134.816 99.5449ZM132.483 96.5909H134.673C135.692 96.5909 136.55 96.4104 137.245 96.0495C137.946 95.6832 138.471 95.1179 138.821 94.3535C139.177 93.5838 139.355 92.5912 139.355 91.3756C139.355 90.1706 139.177 89.1859 138.821 88.4216C138.471 87.6572 137.948 87.0945 137.253 86.7335C136.557 86.3726 135.7 86.1921 134.681 86.1921H132.483V96.5909ZM145.253 99.5449V97.0607L151.058 91.6861C151.551 91.2084 151.965 90.7784 152.3 90.3962C152.639 90.014 152.897 89.6398 153.072 89.2735C153.247 88.9019 153.335 88.5012 153.335 88.0712C153.335 87.5935 153.226 87.1821 153.008 86.8371C152.791 86.4867 152.493 86.2186 152.117 86.0329C151.74 85.8418 151.312 85.7462 150.835 85.7462C150.336 85.7462 149.9 85.8471 149.529 86.0488C149.157 86.2505 148.871 86.5398 148.669 86.9167C148.467 87.2936 148.366 87.7421 148.366 88.2623H145.094C145.094 87.1954 145.335 86.2691 145.818 85.4835C146.301 84.6978 146.978 84.09 147.849 83.6601C148.719 83.2301 149.723 83.0151 150.858 83.0151C152.026 83.0151 153.043 83.2222 153.908 83.6362C154.779 84.0449 155.455 84.6129 155.938 85.3401C156.421 86.0674 156.663 86.9008 156.663 87.8403C156.663 88.4561 156.541 89.0638 156.297 89.6637C156.058 90.2635 155.631 90.9297 155.015 91.6622C154.399 92.3894 153.531 93.2626 152.411 94.2818L150.03 96.6148V96.7263H156.878V99.5449H145.253ZM118.776 110.653C118.776 109.449 118.932 108.342 119.244 107.333C119.559 106.32 120.008 105.388 120.591 104.538H121.585C121.355 104.853 121.14 105.242 120.94 105.703C120.742 106.162 120.569 106.667 120.419 107.218C120.269 107.766 120.152 108.333 120.066 108.919C119.983 109.505 119.941 110.083 119.941 110.653C119.941 111.411 120.015 112.18 120.161 112.96C120.308 113.741 120.505 114.465 120.754 115.134C121.002 115.803 121.279 116.348 121.585 116.768H120.591C120.008 115.918 119.559 114.988 119.244 113.978C118.932 112.965 118.776 111.857 118.776 110.653ZM126.421 115.545H123.401V105.761H126.554C127.504 105.761 128.316 105.957 128.991 106.348C129.666 106.737 130.184 107.296 130.544 108.025C130.903 108.751 131.083 109.621 131.083 110.634C131.083 111.653 130.902 112.53 130.539 113.266C130.176 113.999 129.647 114.562 128.953 114.957C128.258 115.349 127.414 115.545 126.421 115.545ZM124.586 114.494H126.344C127.153 114.494 127.824 114.338 128.356 114.026C128.887 113.714 129.284 113.269 129.545 112.693C129.806 112.116 129.937 111.43 129.937 110.634C129.937 109.844 129.808 109.164 129.55 108.594C129.292 108.021 128.907 107.581 128.394 107.275C127.881 106.966 127.242 106.812 126.478 106.812H124.586V114.494ZM135.995 115.698C135.288 115.698 134.678 115.542 134.165 115.23C133.655 114.914 133.262 114.475 132.985 113.911C132.711 113.344 132.574 112.685 132.574 111.933C132.574 111.182 132.711 110.519 132.985 109.946C133.262 109.369 133.647 108.92 134.141 108.599C134.638 108.274 135.217 108.111 135.88 108.111C136.262 108.111 136.64 108.175 137.012 108.302C137.385 108.43 137.724 108.637 138.03 108.923C138.336 109.207 138.579 109.583 138.761 110.051C138.942 110.519 139.033 111.096 139.033 111.78V112.258H133.377V111.283H137.886C137.886 110.869 137.804 110.5 137.638 110.175C137.476 109.85 137.243 109.594 136.941 109.406C136.641 109.218 136.288 109.124 135.88 109.124C135.431 109.124 135.042 109.236 134.714 109.459C134.389 109.678 134.139 109.965 133.964 110.318C133.789 110.672 133.701 111.051 133.701 111.455V112.105C133.701 112.659 133.797 113.129 133.988 113.515C134.182 113.897 134.452 114.188 134.795 114.389C135.139 114.586 135.539 114.685 135.995 114.685C136.291 114.685 136.558 114.644 136.797 114.561C137.039 114.475 137.248 114.347 137.423 114.179C137.598 114.007 137.734 113.793 137.829 113.538L138.918 113.844C138.804 114.214 138.611 114.538 138.34 114.819C138.07 115.096 137.735 115.312 137.337 115.468C136.939 115.621 136.491 115.698 135.995 115.698ZM144.016 108.207V109.162H140.06V108.207H144.016ZM141.245 115.545V107.194C141.245 106.774 141.344 106.423 141.541 106.143C141.739 105.863 141.995 105.653 142.31 105.512C142.626 105.372 142.958 105.302 143.309 105.302C143.586 105.302 143.812 105.324 143.987 105.369C144.162 105.414 144.293 105.455 144.379 105.493L144.054 106.468C143.997 106.449 143.917 106.425 143.815 106.396C143.716 106.368 143.586 106.353 143.423 106.353C143.051 106.353 142.782 106.447 142.616 106.635C142.454 106.823 142.372 107.098 142.372 107.462V115.545H141.245ZM145.596 115.545V108.207H146.723V115.545H145.596ZM146.169 106.984C145.949 106.984 145.76 106.909 145.601 106.759C145.445 106.61 145.367 106.43 145.367 106.219C145.367 106.009 145.445 105.829 145.601 105.68C145.76 105.53 145.949 105.455 146.169 105.455C146.389 105.455 146.577 105.53 146.733 105.68C146.892 105.829 146.972 106.009 146.972 106.219C146.972 106.43 146.892 106.61 146.733 106.759C146.577 106.909 146.389 106.984 146.169 106.984ZM149.916 111.131V115.545H148.788V108.207H149.878V109.353H149.973C150.145 108.981 150.406 108.681 150.757 108.455C151.107 108.226 151.559 108.111 152.114 108.111C152.61 108.111 153.045 108.213 153.418 108.417C153.79 108.618 154.08 108.923 154.287 109.334C154.494 109.742 154.598 110.258 154.598 110.882V115.545H153.47V110.959C153.47 110.382 153.321 109.933 153.021 109.611C152.722 109.287 152.311 109.124 151.789 109.124C151.429 109.124 151.107 109.202 150.824 109.358C150.543 109.514 150.322 109.742 150.16 110.041C149.997 110.341 149.916 110.704 149.916 111.131ZM159.735 115.698C159.028 115.698 158.418 115.542 157.905 115.23C157.395 114.914 157.002 114.475 156.725 113.911C156.451 113.344 156.314 112.685 156.314 111.933C156.314 111.182 156.451 110.519 156.725 109.946C157.002 109.369 157.387 108.92 157.881 108.599C158.378 108.274 158.958 108.111 159.62 108.111C160.002 108.111 160.38 108.175 160.752 108.302C161.125 108.43 161.464 108.637 161.77 108.923C162.076 109.207 162.319 109.583 162.501 110.051C162.682 110.519 162.773 111.096 162.773 111.78V112.258H157.117V111.283H161.627C161.627 110.869 161.544 110.5 161.378 110.175C161.216 109.85 160.983 109.594 160.681 109.406C160.381 109.218 160.028 109.124 159.62 109.124C159.171 109.124 158.782 109.236 158.454 109.459C158.129 109.678 157.879 109.965 157.704 110.318C157.529 110.672 157.442 111.051 157.442 111.455V112.105C157.442 112.659 157.537 113.129 157.728 113.515C157.922 113.897 158.192 114.188 158.536 114.389C158.88 114.586 159.279 114.685 159.735 114.685C160.031 114.685 160.298 114.644 160.537 114.561C160.779 114.475 160.988 114.347 161.163 114.179C161.338 114.007 161.474 113.793 161.569 113.538L162.658 113.844C162.544 114.214 162.351 114.538 162.08 114.819C161.81 115.096 161.475 115.312 161.077 115.468C160.679 115.621 160.232 115.698 159.735 115.698ZM166.896 111.417C166.896 112.621 166.738 113.73 166.423 114.742C166.111 115.752 165.663 116.682 165.081 117.532H164.087C164.316 117.217 164.53 116.828 164.727 116.367C164.928 115.908 165.103 115.405 165.253 114.857C165.402 114.306 165.518 113.737 165.601 113.151C165.687 112.562 165.73 111.984 165.73 111.417C165.73 110.659 165.657 109.89 165.511 109.11C165.364 108.329 165.167 107.605 164.918 106.936C164.67 106.267 164.393 105.723 164.087 105.302H165.081C165.663 106.153 166.111 107.084 166.423 108.097C166.738 109.107 166.896 110.213 166.896 111.417Z" fill="#1D4ED8"/>
<path d="M258.988 99.5449H253.207V83.2381H259.036C260.676 83.2381 262.088 83.5645 263.272 84.2174C264.455 84.865 265.366 85.7966 266.003 87.0122C266.645 88.2278 266.966 89.6823 266.966 91.3756C266.966 93.0742 266.645 94.534 266.003 95.7549C265.366 96.9757 264.45 97.9126 263.256 98.5656C262.067 99.2185 260.644 99.5449 258.988 99.5449ZM256.655 96.5909H258.845C259.864 96.5909 260.721 96.4104 261.416 96.0495C262.117 95.6832 262.643 95.1179 262.993 94.3535C263.349 93.5838 263.526 92.5912 263.526 91.3756C263.526 90.1706 263.349 89.1859 262.993 88.4216C262.643 87.6572 262.12 87.0945 261.424 86.7335C260.729 86.3726 259.872 86.1921 258.853 86.1921H256.655V96.5909ZM275.452 99.7679C274.263 99.7679 273.204 99.5635 272.275 99.1548C271.351 98.7407 270.622 98.1727 270.085 97.4508C269.555 96.7236 269.281 95.8849 269.265 94.9347H272.737C272.758 95.3329 272.888 95.6832 273.127 95.9858C273.371 96.283 273.695 96.5139 274.098 96.6785C274.502 96.843 274.956 96.9253 275.46 96.9253C275.986 96.9253 276.45 96.8324 276.853 96.6466C277.257 96.4608 277.573 96.2034 277.801 95.8743C278.029 95.5452 278.143 95.1656 278.143 94.7357C278.143 94.3004 278.021 93.9156 277.777 93.5811C277.538 93.2414 277.193 92.976 276.742 92.7849C276.296 92.5938 275.765 92.4983 275.149 92.4983H273.629V89.9662H275.149C275.67 89.9662 276.129 89.876 276.527 89.6955C276.93 89.515 277.244 89.2656 277.466 88.9471C277.689 88.6233 277.801 88.2464 277.801 87.8164C277.801 87.4077 277.703 87.0494 277.506 86.7415C277.315 86.4283 277.044 86.1841 276.694 86.009C276.349 85.8338 275.946 85.7462 275.484 85.7462C275.017 85.7462 274.589 85.8311 274.202 86.001C273.814 86.1656 273.504 86.4018 273.27 86.7097C273.037 87.0175 272.912 87.3785 272.896 87.7925H269.592C269.608 86.853 269.876 86.0249 270.396 85.3083C270.916 84.5917 271.617 84.0317 272.498 83.6282C273.384 83.2195 274.385 83.0151 275.5 83.0151C276.625 83.0151 277.61 83.2195 278.454 83.6282C279.298 84.037 279.953 84.589 280.421 85.2844C280.893 85.9745 281.127 86.7495 281.121 87.6094C281.127 88.5224 280.843 89.2841 280.269 89.8946C279.701 90.505 278.961 90.8925 278.048 91.0571V91.1845C279.247 91.3384 280.16 91.7551 280.787 92.4346C281.418 93.1087 281.732 93.9527 281.726 94.9666C281.732 95.8955 281.464 96.721 280.922 97.4429C280.386 98.1648 279.646 98.7328 278.701 99.1468C277.756 99.5608 276.673 99.7679 275.452 99.7679ZM238.099 110.653C238.099 109.449 238.255 108.342 238.568 107.333C238.883 106.32 239.332 105.388 239.915 104.538H240.908C240.679 104.853 240.464 105.242 240.264 105.703C240.066 106.162 239.892 106.667 239.743 107.218C239.593 107.766 239.475 108.333 239.389 108.919C239.306 109.505 239.265 110.083 239.265 110.653C239.265 111.411 239.338 112.18 239.485 112.96C239.631 113.741 239.829 114.465 240.077 115.134C240.326 115.803 240.603 116.348 240.908 116.768H239.915C239.332 115.918 238.883 114.988 238.568 113.978C238.255 112.965 238.099 111.857 238.099 110.653ZM245.744 115.545H242.725V105.761H245.878C246.827 105.761 247.639 105.957 248.315 106.348C248.99 106.737 249.507 107.296 249.867 108.025C250.227 108.751 250.407 109.621 250.407 110.634C250.407 111.653 250.226 112.53 249.863 113.266C249.499 113.999 248.971 114.562 248.276 114.957C247.582 115.349 246.738 115.545 245.744 115.545ZM243.91 114.494H245.668C246.477 114.494 247.147 114.338 247.679 114.026C248.211 113.714 248.608 113.269 248.869 112.693C249.13 112.116 249.261 111.43 249.261 110.634C249.261 109.844 249.132 109.164 248.874 108.594C248.616 108.021 248.23 107.581 247.717 107.275C247.205 106.966 246.566 106.812 245.802 106.812H243.91V114.494ZM255.318 115.698C254.611 115.698 254.001 115.542 253.489 115.23C252.979 114.914 252.586 114.475 252.309 113.911C252.035 113.344 251.898 112.685 251.898 111.933C251.898 111.182 252.035 110.519 252.309 109.946C252.586 109.369 252.971 108.92 253.465 108.599C253.962 108.274 254.541 108.111 255.204 108.111C255.586 108.111 255.963 108.175 256.336 108.302C256.709 108.43 257.048 108.637 257.353 108.923C257.659 109.207 257.903 109.583 258.084 110.051C258.266 110.519 258.357 111.096 258.357 111.78V112.258H252.7V111.283H257.21C257.21 110.869 257.127 110.5 256.962 110.175C256.799 109.85 256.567 109.594 256.264 109.406C255.965 109.218 255.611 109.124 255.204 109.124C254.755 109.124 254.366 109.236 254.038 109.459C253.713 109.678 253.463 109.965 253.288 110.318C253.113 110.672 253.025 111.051 253.025 111.455V112.105C253.025 112.659 253.121 113.129 253.312 113.515C253.506 113.897 253.775 114.188 254.119 114.389C254.463 114.586 254.863 114.685 255.318 114.685C255.614 114.685 255.882 114.644 256.121 114.561C256.363 114.475 256.572 114.347 256.747 114.179C256.922 114.007 257.057 113.793 257.153 113.538L258.242 113.844C258.127 114.214 257.935 114.538 257.664 114.819C257.393 115.096 257.059 115.312 256.661 115.468C256.263 115.621 255.815 115.698 255.318 115.698ZM265.849 108.207L263.135 115.545H261.989L259.275 108.207H260.498L262.524 114.054H262.6L264.626 108.207H265.849ZM270.151 115.698C269.444 115.698 268.834 115.542 268.321 115.23C267.812 114.914 267.418 114.475 267.141 113.911C266.867 113.344 266.73 112.685 266.73 111.933C266.73 111.182 266.867 110.519 267.141 109.946C267.418 109.369 267.804 108.92 268.297 108.599C268.794 108.274 269.374 108.111 270.036 108.111C270.418 108.111 270.796 108.175 271.168 108.302C271.541 108.43 271.88 108.637 272.186 108.923C272.492 109.207 272.735 109.583 272.917 110.051C273.099 110.519 273.189 111.096 273.189 111.78V112.258H267.533V111.283H272.043C272.043 110.869 271.96 110.5 271.794 110.175C271.632 109.85 271.399 109.594 271.097 109.406C270.797 109.218 270.444 109.124 270.036 109.124C269.587 109.124 269.199 109.236 268.871 109.459C268.546 109.678 268.296 109.965 268.121 110.318C267.945 110.672 267.858 111.051 267.858 111.455V112.105C267.858 112.659 267.953 113.129 268.144 113.515C268.339 113.897 268.608 114.188 268.952 114.389C269.296 114.586 269.695 114.685 270.151 114.685C270.447 114.685 270.715 114.644 270.954 114.561C271.196 114.475 271.404 114.347 271.579 114.179C271.755 114.007 271.89 113.793 271.985 113.538L273.075 113.844C272.96 114.214 272.767 114.538 272.497 114.819C272.226 115.096 271.891 115.312 271.493 115.468C271.095 115.621 270.648 115.698 270.151 115.698ZM276.032 105.761V115.545H274.904V105.761H276.032ZM281.078 115.698C280.416 115.698 279.834 115.54 279.334 115.225C278.837 114.91 278.449 114.468 278.169 113.901C277.891 113.335 277.753 112.672 277.753 111.914C277.753 111.15 277.891 110.482 278.169 109.912C278.449 109.342 278.837 108.9 279.334 108.584C279.834 108.269 280.416 108.111 281.078 108.111C281.74 108.111 282.32 108.269 282.817 108.584C283.317 108.9 283.706 109.342 283.983 109.912C284.263 110.482 284.403 111.15 284.403 111.914C284.403 112.672 284.263 113.335 283.983 113.901C283.706 114.468 283.317 114.91 282.817 115.225C282.32 115.54 281.74 115.698 281.078 115.698ZM281.078 114.685C281.581 114.685 281.995 114.556 282.32 114.298C282.645 114.04 282.885 113.701 283.042 113.28C283.198 112.86 283.276 112.405 283.276 111.914C283.276 111.424 283.198 110.967 283.042 110.543C282.885 110.119 282.645 109.777 282.32 109.516C281.995 109.255 281.581 109.124 281.078 109.124C280.575 109.124 280.161 109.255 279.836 109.516C279.511 109.777 279.271 110.119 279.114 110.543C278.958 110.967 278.88 111.424 278.88 111.914C278.88 112.405 278.958 112.86 279.114 113.28C279.271 113.701 279.511 114.04 279.836 114.298C280.161 114.556 280.575 114.685 281.078 114.685ZM286.124 118.297V108.207H287.213V109.373H287.347C287.43 109.245 287.545 109.083 287.691 108.885C287.841 108.685 288.054 108.506 288.331 108.35C288.612 108.191 288.991 108.111 289.468 108.111C290.086 108.111 290.631 108.266 291.102 108.575C291.574 108.884 291.941 109.322 292.206 109.888C292.47 110.455 292.602 111.124 292.602 111.895C292.602 112.672 292.47 113.346 292.206 113.916C291.941 114.483 291.575 114.922 291.107 115.234C290.639 115.543 290.099 115.698 289.487 115.698C289.016 115.698 288.639 115.62 288.355 115.464C288.072 115.304 287.854 115.125 287.701 114.924C287.548 114.72 287.43 114.551 287.347 114.417H287.252V118.297H286.124ZM287.232 111.876C287.232 112.43 287.314 112.919 287.476 113.343C287.639 113.763 287.876 114.093 288.188 114.331C288.5 114.567 288.882 114.685 289.335 114.685C289.806 114.685 290.199 114.561 290.515 114.312C290.833 114.061 291.072 113.723 291.231 113.3C291.394 112.873 291.475 112.398 291.475 111.876C291.475 111.36 291.395 110.895 291.236 110.481C291.08 110.064 290.843 109.734 290.524 109.492C290.209 109.247 289.812 109.124 289.335 109.124C288.876 109.124 288.491 109.24 288.178 109.473C287.866 109.702 287.631 110.024 287.471 110.438C287.312 110.849 287.232 111.328 287.232 111.876ZM296.572 111.417C296.572 112.621 296.415 113.73 296.099 114.742C295.787 115.752 295.34 116.682 294.757 117.532H293.763C293.992 117.217 294.206 116.828 294.403 116.367C294.604 115.908 294.779 115.405 294.929 114.857C295.079 114.306 295.195 113.737 295.278 113.151C295.364 112.562 295.407 111.984 295.407 111.417C295.407 110.659 295.333 109.89 295.187 109.11C295.04 108.329 294.843 107.605 294.594 106.936C294.346 106.267 294.069 105.723 293.763 105.302H294.757C295.34 106.153 295.787 107.084 296.099 108.097C296.415 109.107 296.572 110.213 296.572 111.417Z" fill="#1D4ED8"/>
<path d="M344.78 99.5449H338.999V83.2381H344.828C346.468 83.2381 347.88 83.5645 349.064 84.2174C350.247 84.865 351.158 85.7966 351.795 87.0122C352.437 88.2278 352.758 89.6823 352.758 91.3756C352.758 93.0742 352.437 94.534 351.795 95.7549C351.158 96.9757 350.242 97.9126 349.048 98.5656C347.859 99.2185 346.436 99.5449 344.78 99.5449ZM342.447 96.5909H344.637C345.656 96.5909 346.513 96.4104 347.208 96.0495C347.909 95.6832 348.435 95.1179 348.785 94.3535C349.141 93.5838 349.318 92.5912 349.318 91.3756C349.318 90.1706 349.141 89.1859 348.785 88.4216C348.435 87.6572 347.912 87.0945 347.216 86.7335C346.521 86.3726 345.664 86.1921 344.645 86.1921H342.447V96.5909ZM354.97 96.6785V93.9633L361.777 83.2381H364.118V86.9963H362.733L358.441 93.7882V93.9156H368.115V96.6785H354.97ZM362.797 99.5449V95.8504L362.86 94.6481V83.2381H366.093V99.5449H362.797ZM327.922 110.653C327.922 109.449 328.079 108.342 328.391 107.333C328.706 106.32 329.155 105.388 329.738 104.538H330.732C330.502 104.853 330.287 105.242 330.087 105.703C329.889 106.162 329.716 106.667 329.566 107.218C329.416 107.766 329.298 108.333 329.212 108.919C329.13 109.505 329.088 110.083 329.088 110.653C329.088 111.411 329.161 112.18 329.308 112.96C329.454 113.741 329.652 114.465 329.9 115.134C330.149 115.803 330.426 116.348 330.732 116.768H329.738C329.155 115.918 328.706 114.988 328.391 113.978C328.079 112.965 327.922 111.857 327.922 110.653ZM335.568 115.545H332.548V105.761H335.701C336.65 105.761 337.463 105.957 338.138 106.348C338.813 106.737 339.33 107.296 339.69 108.025C340.05 108.751 340.23 109.621 340.23 110.634C340.23 111.653 340.049 112.53 339.686 113.266C339.323 113.999 338.794 114.562 338.1 114.957C337.405 115.349 336.561 115.545 335.568 115.545ZM333.733 114.494H335.491C336.3 114.494 336.97 114.338 337.502 114.026C338.034 113.714 338.431 113.269 338.692 112.693C338.953 112.116 339.084 111.43 339.084 110.634C339.084 109.844 338.955 109.164 338.697 108.594C338.439 108.021 338.053 107.581 337.541 107.275C337.028 106.966 336.389 106.812 335.625 106.812H333.733V114.494ZM345.141 115.698C344.434 115.698 343.824 115.542 343.312 115.23C342.802 114.914 342.409 114.475 342.132 113.911C341.858 113.344 341.721 112.685 341.721 111.933C341.721 111.182 341.858 110.519 342.132 109.946C342.409 109.369 342.794 108.92 343.288 108.599C343.785 108.274 344.364 108.111 345.027 108.111C345.409 108.111 345.786 108.175 346.159 108.302C346.532 108.43 346.871 108.637 347.177 108.923C347.482 109.207 347.726 109.583 347.908 110.051C348.089 110.519 348.18 111.096 348.18 111.78V112.258H342.523V111.283H347.033C347.033 110.869 346.95 110.5 346.785 110.175C346.622 109.85 346.39 109.594 346.087 109.406C345.788 109.218 345.434 109.124 345.027 109.124C344.578 109.124 344.189 109.236 343.861 109.459C343.536 109.678 343.286 109.965 343.111 110.318C342.936 110.672 342.848 111.051 342.848 111.455V112.105C342.848 112.659 342.944 113.129 343.135 113.515C343.329 113.897 343.598 114.188 343.942 114.389C344.286 114.586 344.686 114.685 345.141 114.685C345.438 114.685 345.705 114.644 345.944 114.561C346.186 114.475 346.395 114.347 346.57 114.179C346.745 114.007 346.88 113.793 346.976 113.538L348.065 113.844C347.951 114.214 347.758 114.538 347.487 114.819C347.216 115.096 346.882 115.312 346.484 115.468C346.086 115.621 345.638 115.698 345.141 115.698ZM351.022 105.761V115.545H349.895V105.761H351.022ZM353.087 115.545V108.207H354.215V115.545H353.087ZM353.661 106.984C353.441 106.984 353.251 106.909 353.092 106.759C352.936 106.61 352.858 106.43 352.858 106.219C352.858 106.009 352.936 105.829 353.092 105.68C353.251 105.53 353.441 105.455 353.661 105.455C353.88 105.455 354.068 105.53 354.224 105.68C354.384 105.829 354.463 106.009 354.463 106.219C354.463 106.43 354.384 106.61 354.224 106.759C354.068 106.909 353.88 106.984 353.661 106.984ZM362.28 108.207L359.567 115.545H358.42L355.707 108.207H356.93L358.955 114.054H359.032L361.057 108.207H362.28ZM366.582 115.698C365.875 115.698 365.265 115.542 364.753 115.23C364.243 114.914 363.85 114.475 363.573 113.911C363.299 113.344 363.162 112.685 363.162 111.933C363.162 111.182 363.299 110.519 363.573 109.946C363.85 109.369 364.235 108.92 364.729 108.599C365.226 108.274 365.805 108.111 366.468 108.111C366.85 108.111 367.227 108.175 367.6 108.302C367.973 108.43 368.312 108.637 368.618 108.923C368.923 109.207 369.167 109.583 369.348 110.051C369.53 110.519 369.621 111.096 369.621 111.78V112.258H363.964V111.283H368.474C368.474 110.869 368.391 110.5 368.226 110.175C368.063 109.85 367.831 109.594 367.528 109.406C367.229 109.218 366.875 109.124 366.468 109.124C366.019 109.124 365.63 109.236 365.302 109.459C364.977 109.678 364.727 109.965 364.552 110.318C364.377 110.672 364.289 111.051 364.289 111.455V112.105C364.289 112.659 364.385 113.129 364.576 113.515C364.77 113.897 365.039 114.188 365.383 114.389C365.727 114.586 366.127 114.685 366.582 114.685C366.879 114.685 367.146 114.644 367.385 114.561C367.627 114.475 367.836 114.347 368.011 114.179C368.186 114.007 368.321 113.793 368.417 113.538L369.506 113.844C369.391 114.214 369.199 114.538 368.928 114.819C368.657 115.096 368.323 115.312 367.925 115.468C367.527 115.621 367.079 115.698 366.582 115.698ZM371.336 115.545V108.207H372.425V109.315H372.502C372.635 108.952 372.877 108.658 373.228 108.431C373.578 108.205 373.973 108.092 374.412 108.092C374.495 108.092 374.599 108.094 374.723 108.097C374.847 108.1 374.941 108.105 375.005 108.111V109.258C374.967 109.248 374.879 109.234 374.742 109.215C374.608 109.193 374.467 109.181 374.317 109.181C373.96 109.181 373.642 109.256 373.361 109.406C373.084 109.552 372.865 109.756 372.702 110.017C372.543 110.275 372.463 110.57 372.463 110.901V115.545H371.336ZM378.749 111.417C378.749 112.621 378.592 113.73 378.276 114.742C377.964 115.752 377.517 116.682 376.934 117.532H375.94C376.169 117.217 376.383 116.828 376.58 116.367C376.781 115.908 376.956 115.405 377.106 114.857C377.255 114.306 377.372 113.737 377.455 113.151C377.54 112.562 377.583 111.984 377.583 111.417C377.583 110.659 377.51 109.89 377.364 109.11C377.217 108.329 377.02 107.605 376.771 106.936C376.523 106.267 376.246 105.723 375.94 105.302H376.934C377.517 106.153 377.964 107.084 378.276 108.097C378.592 109.107 378.749 110.213 378.749 111.417Z" fill="#1D4ED8"/>
</svg>
