<svg width="310" height="41" viewBox="0 0 310 41" fill="none" xmlns="http://www.w3.org/2000/svg">
<g>
<path d="M230.335 25.6846C230.948 25.6846 231.444 26.1639 231.444 26.7549V28.8945C231.444 29.4856 230.948 29.9648 230.335 29.9648H229.225C228.612 29.9646 228.115 29.4854 228.115 28.8945V26.7549C228.115 26.164 228.612 25.6848 229.225 25.6846H230.335ZM235.558 23.5439C236.171 23.544 236.667 24.0232 236.667 24.6143V28.8945C236.667 29.4856 236.171 29.9648 235.558 29.9648H234.448C233.835 29.9648 233.338 29.4856 233.338 28.8945V24.6143C233.338 24.0232 233.835 23.5439 234.448 23.5439H235.558ZM240.78 21.0469C241.393 21.0469 241.891 21.5262 241.891 22.1172V28.8955C241.891 29.4864 241.393 29.9648 240.78 29.9648H239.671C239.058 29.9648 238.561 29.4864 238.561 28.8955V22.1172C238.561 21.5262 239.058 21.0469 239.671 21.0469H240.78ZM246.003 18.5498C246.616 18.5498 247.113 19.0291 247.113 19.6201V28.8945C247.113 29.4856 246.616 29.9648 246.003 29.9648H244.894C244.281 29.9648 243.783 29.4856 243.783 28.8945V19.6201C243.783 19.0291 244.281 18.5498 244.894 18.5498H246.003Z" fill="black"/>
<path d="M259.518 27.4216C260.869 26.2517 262.847 26.2517 264.198 27.4216C264.266 27.4844 264.305 27.573 264.307 27.6667C264.309 27.7605 264.273 27.851 264.208 27.9167L262.093 30.1032C262.031 30.1674 261.946 30.2028 261.858 30.2028C261.77 30.2027 261.686 30.1672 261.624 30.1032L259.508 27.9167C259.443 27.8509 259.407 27.7604 259.409 27.6667C259.411 27.5731 259.45 27.4844 259.518 27.4216ZM256.696 24.5056C259.606 21.7334 264.113 21.7334 267.023 24.5056C267.089 24.5706 267.126 24.6601 267.127 24.7536C267.127 24.847 267.092 24.9373 267.028 25.0036L265.805 26.2683C265.679 26.3974 265.476 26.3999 265.346 26.2741C264.391 25.388 263.147 24.8971 261.858 24.8972C260.57 24.8978 259.328 25.3886 258.373 26.2741C258.243 26.3999 258.04 26.3974 257.914 26.2683L256.692 25.0036C256.628 24.9374 256.592 24.8471 256.592 24.7536C256.593 24.6601 256.63 24.5705 256.696 24.5056ZM253.874 21.5974C258.337 17.2169 265.379 17.2169 269.842 21.5974C269.907 21.6624 269.943 21.7517 269.944 21.8444C269.944 21.9371 269.909 22.0267 269.845 22.0925L268.621 23.3571C268.495 23.4869 268.29 23.4888 268.162 23.361C266.461 21.7054 264.204 20.782 261.858 20.7819C259.512 20.782 257.255 21.7053 255.554 23.361C255.426 23.489 255.221 23.4871 255.095 23.3571L253.871 22.0925C253.807 22.0267 253.772 21.9371 253.772 21.8444C253.773 21.7516 253.809 21.6624 253.874 21.5974Z" fill="black"/>
<rect opacity="0.4" x="277.078" y="18.5499" width="22.8308" height="11.4154" rx="3.32949" stroke="black" stroke-width="0.951282"/>
<path opacity="0.5" d="M301.336 22.355V26.1601C302.103 25.8378 302.601 25.0881 302.601 24.2575C302.601 23.4269 302.103 22.6773 301.336 22.355" fill="black"/>
<rect x="278.505" y="19.9766" width="16.1718" height="8.56154" rx="1.90256" fill="black"/>
</g>
</svg>